<svg version="1.1" id="Layer_1" xmlns="http://www.w3.org/2000/svg" x="0" y="0" viewBox="0 0 1767 393" style="enable-background:new 0 0 1767 393" xml:space="preserve"><style>.st0{fill:#005bff}.st1{fill:#001dff}</style><path d="M844.4 113h-38.3c-2 0-3.8 1.4-4.3 3.3-10 38.9-23.8 103.9-39.6 167.4L752 325.4c-.2.7-.6 1.3-1.3 1.5-.5-.3-1-.8-1.1-1.4l-28.9-116.1-21.5-92.9c-.4-2-2.2-3.5-4.3-3.5h-46.5c-2 0-3.8 1.4-4.3 3.4l-48.8 209c-.2 1-1.3 1.6-2.3 1.6l.6.1c-1 0-2-.7-2.2-1.7-12.3-50.6-25.7-114.9-38-163.9l-11.3-45.2c-.5-2-2.3-3.3-4.3-3.3H499c-2.9 0-5 2.8-4.2 5.6L558.7 372c.5 1.9 2.3 3.2 4.2 3.2h61.2c2 0 3.8-1.4 4.3-3.4l42-168.6c.4-1.6 2.7-1.6 3.1 0l39.9 168.6c.5 2 2.2 3.3 4.3 3.3H782c2 0 3.7-1.3 4.2-3.2l62.3-253.4c.9-2.7-1.2-5.5-4.1-5.5zM929.7 358.9c-17.7-10.9-31.3-26.2-40.9-46.1-9.6-19.9-14.4-42.9-14.4-69 0-26.5 4.8-49.6 14.4-69.5 9.6-19.9 23.2-35.2 40.9-46.1 17.7-10.9 38-16.3 60.9-16.3 23.2 0 43.6 5.4 61.2 16.3 17.5 10.9 31.1 26.2 40.7 46.1 9.6 19.9 14.4 43 14.4 69.5 0 26.1-4.8 49.1-14.4 69-9.6 19.8-23.2 35.2-40.7 46.1-17.5 10.9-37.9 16.3-61.2 16.3-22.9 0-43.2-5.5-60.9-16.3zm113-47.9c12.8-17 19.2-39.4 19.2-67.2 0-28.2-6.4-50.7-19.2-67.7-12.8-17-30.2-25.5-52.1-25.5-21.9 0-39.3 8.5-52.1 25.5-12.8 17-19.2 39.5-19.2 67.7 0 27.8 6.4 50.2 19.2 67.2 12.8 17 30.2 25.5 52.1 25.5 21.9 0 39.3-8.5 52.1-25.5zM1262.6 112c-20.5 0-37.4 5.6-45.7 11-9.3 6-17.6 12.1-23.7 22.7v-31.5c0-1.2-1-2.1-2.1-2.1h-36.7c-1.2 0-2.1 1-2.1 2.1v258.7c0 1.2 1 2.1 2.1 2.1h39.2c1.2 0 2.1-1 2.1-2.1V267.6c0-35.7 2.4-63.2 12.7-84.1 6.2-12.7 13-25.5 39.3-32.4 9.7-2.5 26.4-2.1 35.4-.5 1.3.2 2.5-.8 2.5-2.1v-32.8c0-1-.7-1.9-1.7-2.1-5.4-1-16.2-1.6-21.3-1.6zM1549.9 372.4 1453 217c-.7-1.1-1-2 0-3l92.6-98.3c.9-1 .2-2.7-1.2-2.7h-51.5c-2.2 0-4.3.9-5.9 2.6-45 48.4-69.1 71.5-112.3 116.2-.5.5-1.4.2-1.4-.6V20c0-1.2-1-2.1-2.1-2.1H1331c-1.2 0-2.1 1-2.1 2.1v353c0 1.2 1 2.1 2.1 2.1h40.2c1.2 0 2.1-1 2.1-2.1v-73.4c0-1.8.7-3.5 2-4.8l45-44.1c.9-.9 2.4-.7 3.1.4l.4.7 75.1 121.3c.8 1.3 2.2 2 3.7 2h45.8c1.4.1 2.3-1.5 1.5-2.7zM1592.4 354.1c-15.4-13.6-24.6-32.9-27.5-57.8-.1-1.3.9-2.4 2.1-2.4h40c1 0 1.9.7 2.1 1.7 2.3 12.7 8.6 22.6 19.1 29.7 10.9 7.5 23.3 11.2 37.2 11.2 13.6 0 25.1-3.1 34.5-9.4 9.4-6.3 14.2-15.7 14.2-28.2 0-12.2-5.1-21.6-15.1-28.2-10.1-6.6-25.7-11.8-46.9-15.5-27.1-4.7-47.3-13.8-60.3-27.2-13.1-13.4-19.6-29.2-19.6-47.5 0-20 8.3-36.4 25.1-49.3 16.7-12.9 39.1-19.3 67.3-19.3 27.5 0 49.2 6.1 65 18.3 15.4 11.8 23.9 29.3 25.7 52.6.1 1.2-.9 2.3-2.1 2.3h-38.6c-1 0-1.9-.7-2.1-1.8-1.7-10.6-7.2-18.8-16.6-24.4-9.9-5.9-21.5-8.9-34.7-8.9-12.6 0-23.3 2.7-32 8.1-8.8 5.4-13.2 13.2-13.2 23.4 0 20 18.9 33.5 56.6 40.6 29.1 5.4 50.6 14.7 64.5 27.7 13.9 13 20.8 29.9 20.8 50.5 0 14.6-4.1 27.5-12.2 38.6-8.1 11.2-19.5 20-34.2 26.4-14.7 6.4-31.5 9.7-50.4 9.7-30 .2-52.8-6.9-68.7-20.9z"/><path class="st0" d="M19.1 17.2h339.3c5.4 0 9.9 4.4 9.9 9.9v70.2c0 5.4-4.4 9.9-9.9 9.9H19.1c-5.4 0-9.9-4.4-9.9-9.9V27.1c.1-5.5 4.5-9.9 9.9-9.9z"/><path class="st0" d="M99.5 26.9v339.2c0 5.4-4.4 9.9-9.9 9.9H19.4c-5.4 0-9.9-4.4-9.9-9.9V26.9c0-5.4 4.4-9.9 9.9-9.9h70.2c5.5.1 9.9 4.5 9.9 9.9z"/><g><path class="st1" d="M362.9 375.9H156c-3 0-5.4-2.4-5.4-5.4v-34.2c0-3 2.4-5.4 5.4-5.4h206.9c3 0 5.4 2.4 5.4 5.4v34.2c0 3-2.4 5.4-5.4 5.4z"/><path class="st1" d="M323.2 370.5V163.6c0-3 2.4-5.4 5.4-5.4h34.2c3 0 5.4 2.4 5.4 5.4v206.9c0 3-2.4 5.4-5.4 5.4h-34.2c-2.9 0-5.4-2.4-5.4-5.4z"/></g></svg>